<svg xmlns="http://www.w3.org/2000/svg" viewBox="0 0 512 512">
  <defs>
    <linearGradient id="pocketGrad" x1="0%" y1="0%" x2="0%" y2="100%">
      <stop offset="0%" style="stop-color:#74b9ff;stop-opacity:1" />
      <stop offset="100%" style="stop-color:#4a88bb;stop-opacity:1" />
    </linearGradient>
  </defs>
  <!-- Background Pocket Shape (Rounded Bottom) -->
  <path d="M100 100 Q100 60 140 60 H372 Q412 60 412 100 V300 Q412 452 256 452 Q100 452 100 300 Z" fill="url(#pocketGrad)" />
  <!-- Sun -->
  <circle cx="256" cy="220" r="75" fill="#f67a05" />
  <!-- Sun Rays -->
  <g stroke="#f67a05" stroke-width="20" stroke-linecap="round">
    <line x1="256" y1="110" x2="256" y2="70" />
    <line x1="256" y1="330" x2="256" y2="370" />
    <line x1="146" y1="220" x2="106" y2="220" />
    <line x1="366" y1="220" x2="406" y2="220" />
    <line x1="178" y1="142" x2="150" y2="114" />
    <line x1="334" y1="298" x2="362" y2="326" />
    <line x1="178" y1="298" x2="150" y2="326" />
    <line x1="334" y1="142" x2="362" y2="114" />
  </g>
  <!-- Pocket Detail (Stitch/Line) -->
  <path d="M100 180 H412" stroke="white" stroke-width="12" stroke-opacity="0.3" fill="none" />
</svg>
